<svg width="195" height="35" viewBox="0 0 195 35" fill="none" xmlns="http://www.w3.org/2000/svg">
<path d="M30.6145 11.8C30.6145 12.3867 30.4705 12.9253 30.1825 13.416C29.8945 13.896 29.5052 14.28 29.0145 14.568C28.5345 14.856 28.0012 15 27.4145 15H19.8305V13.4H27.4145C27.8518 13.4 28.2252 13.2453 28.5345 12.936C28.8545 12.616 29.0145 12.2373 29.0145 11.8C29.0145 11.3627 28.8545 10.9893 28.5345 10.68C28.2252 10.36 27.8518 10.2 27.4145 10.2H19.8305V8.60005H25.8145C26.2518 8.60005 26.6252 8.44538 26.9345 8.13605C27.2545 7.81605 27.4145 7.43738 27.4145 7.00005C27.4145 6.56272 27.2545 6.18938 26.9345 5.88005C26.6252 5.56005 26.2518 5.40005 25.8145 5.40005H19.0305V15H17.4305V3.80005H25.8145C26.4012 3.80005 26.9345 3.94405 27.4145 4.23205C27.9052 4.52005 28.2945 4.90938 28.5825 5.40005C28.8705 5.88005 29.0145 6.41338 29.0145 7.00005C29.0145 7.33072 28.9665 7.65072 28.8705 7.96005C28.7745 8.25872 28.6412 8.53605 28.4705 8.79205C29.0998 9.00538 29.6118 9.38938 30.0065 9.94405C30.4118 10.488 30.6145 11.1067 30.6145 11.8ZM44.317 15H42.717V10.2H34.893V8.60005H42.717V3.80005H44.317V15ZM34.093 15H32.493V3.80005H34.093V15ZM59.7446 15H58.1446V11.8H49.2006V10.2H58.1446V5.40005H52.4006C51.6753 5.40005 51.0086 5.58138 50.4006 5.94405C49.7926 6.29605 49.3073 6.77605 48.9446 7.38405C48.5926 7.99205 48.4166 8.66405 48.4166 9.40005V15H46.8166V9.40005C46.8166 8.63205 46.9606 7.91205 47.2486 7.24005C47.5366 6.55738 47.9366 5.96005 48.4486 5.44805C48.9606 4.92538 49.5526 4.52005 50.2246 4.23205C50.9073 3.94405 51.6326 3.80005 52.4006 3.80005H59.7446V15ZM75.3585 15H73.1985L69.8385 11.8H64.9265V10.216H71.3585C71.8065 10.216 72.2118 10.1093 72.5745 9.89605C72.9372 9.67205 73.2252 9.37872 73.4385 9.01605C73.6518 8.64272 73.7585 8.23738 73.7585 7.80005C73.7585 7.35205 73.6518 6.94672 73.4385 6.58405C73.2252 6.22138 72.9372 5.93338 72.5745 5.72005C72.2118 5.50672 71.8065 5.40005 71.3585 5.40005H64.0305V15H62.4305V3.80005H71.3585C72.0945 3.80005 72.7665 3.98138 73.3745 4.34405C73.9825 4.69605 74.4625 5.17605 74.8145 5.78405C75.1772 6.39205 75.3585 7.06405 75.3585 7.80005C75.3585 8.46138 75.2092 9.07472 74.9105 9.64005C74.6225 10.2053 74.2225 10.6747 73.7105 11.048C73.2092 11.4107 72.6385 11.6453 71.9985 11.752L75.3585 15ZM90.1353 15H88.5353V11.8H79.5913V10.2H88.5353V5.40005H82.7913C82.0659 5.40005 81.3993 5.58138 80.7913 5.94405C80.1833 6.29605 79.6979 6.77605 79.3353 7.38405C78.9833 7.99205 78.8073 8.66405 78.8073 9.40005V15H77.2073V9.40005C77.2073 8.63205 77.3513 7.91205 77.6393 7.24005C77.9273 6.55738 78.3273 5.96005 78.8393 5.44805C79.3513 4.92538 79.9433 4.52005 80.6153 4.23205C81.2979 3.94405 82.0233 3.80005 82.7913 3.80005H90.1353V15ZM98.9011 15H97.3011V5.40005H91.6371V3.80005H104.565V5.40005H98.9011V15ZM123.299 15H116.083C115.304 15 114.6 14.856 113.971 14.568C113.342 14.28 112.798 13.88 112.339 13.368C111.891 12.856 111.544 12.264 111.299 11.592C111.054 10.9093 110.931 10.1787 110.931 9.40005C110.931 8.63205 111.054 7.91205 111.299 7.24005C111.544 6.55738 111.891 5.96005 112.339 5.44805C112.798 4.92538 113.342 4.52005 113.971 4.23205C114.6 3.94405 115.304 3.80005 116.083 3.80005H123.299V5.40005H116.083C115.347 5.40005 114.712 5.58138 114.179 5.94405C113.656 6.29605 113.251 6.77605 112.963 7.38405C112.675 7.99205 112.531 8.66405 112.531 9.40005C112.531 10.136 112.675 10.808 112.963 11.416C113.251 12.0133 113.656 12.4933 114.179 12.856C114.712 13.2187 115.347 13.4 116.083 13.4H123.299V15ZM137.739 11.8C137.739 12.3867 137.558 12.9253 137.195 13.416C136.843 13.896 136.363 14.28 135.755 14.568C135.147 14.856 134.475 15 133.739 15H124.795V13.4H133.739C134.177 13.4 134.577 13.3307 134.939 13.192C135.302 13.0427 135.59 12.8453 135.803 12.6C136.027 12.3547 136.139 12.088 136.139 11.8V11H128.795C128.059 11 127.387 10.8187 126.779 10.456C126.182 10.0933 125.702 9.61338 125.339 9.01605C124.977 8.40805 124.795 7.73605 124.795 7.00005V3.80005H126.395V7.00005C126.395 7.43738 126.502 7.84272 126.715 8.21605C126.929 8.57872 127.217 8.86672 127.579 9.08005C127.953 9.29338 128.358 9.40005 128.795 9.40005H136.139V3.80005H137.739V11.8ZM152.065 15H144.849C144.07 15 143.366 14.856 142.737 14.568C142.107 14.28 141.563 13.88 141.105 13.368C140.657 12.856 140.31 12.264 140.065 11.592C139.819 10.9093 139.697 10.1787 139.697 9.40005C139.697 8.63205 139.819 7.91205 140.065 7.24005C140.31 6.55738 140.657 5.96005 141.105 5.44805C141.563 4.92538 142.107 4.52005 142.737 4.23205C143.366 3.94405 144.07 3.80005 144.849 3.80005H152.065V5.40005H144.849C144.113 5.40005 143.478 5.58138 142.945 5.94405C142.422 6.29605 142.017 6.77605 141.729 7.38405C141.441 7.99205 141.297 8.66405 141.297 9.40005C141.297 10.136 141.441 10.808 141.729 11.416C142.017 12.0133 142.422 12.4933 142.945 12.856C143.478 13.2187 144.113 13.4 144.849 13.4H152.065V15ZM164.697 15H153.993V3.80005H155.593V13.4H164.697V15ZM177.78 15H166.196V3.80005H177.78V5.40005H167.796V13.4H177.78V15ZM176.42 10.2H168.596V8.60005H176.42V10.2Z" fill="white"/>
<path d="M27.1323 30.2249C27.1323 30.5549 27.0513 30.8579 26.8893 31.1339C26.7273 31.4039 26.5113 31.6199 26.2413 31.7819C25.9713 31.9439 25.6683 32.0249 25.3323 32.0249H19.8603V31.1249H25.3323C25.5843 31.1249 25.7973 31.0379 25.9713 30.8639C26.1453 30.6839 26.2323 30.4709 26.2323 30.2249C26.2323 29.9789 26.1453 29.7689 25.9713 29.5949C25.7973 29.4149 25.5843 29.3249 25.3323 29.3249H21.6603C21.3303 29.3249 21.0273 29.2439 20.7513 29.0819C20.4813 28.9199 20.2653 28.7039 20.1033 28.4339C19.9413 28.1579 19.8603 27.8549 19.8603 27.5249C19.8603 27.1949 19.9413 26.8949 20.1033 26.6249C20.2653 26.3489 20.4813 26.1299 20.7513 25.9679C21.0273 25.8059 21.3303 25.7249 21.6603 25.7249H26.6823V26.6249H21.6603C21.4143 26.6249 21.2013 26.7149 21.0213 26.8949C20.8473 27.0689 20.7603 27.2789 20.7603 27.5249C20.7603 27.7709 20.8473 27.9839 21.0213 28.1639C21.2013 28.3379 21.4143 28.4249 21.6603 28.4249H25.3323C25.6683 28.4249 25.9713 28.5059 26.2413 28.6679C26.5113 28.8299 26.7273 29.0489 26.8893 29.3249C27.0513 29.5949 27.1323 29.8949 27.1323 30.2249ZM54.1021 32.0249H53.2021V26.6249H50.0161V25.7249H57.2881V26.6249H54.1021V32.0249ZM87.3852 25.7249L87.3762 28.8749C87.3762 29.3129 87.2952 29.7239 87.1332 30.1079C86.9712 30.4859 86.7462 30.8189 86.4582 31.1069C86.1702 31.3949 85.8342 31.6199 85.4502 31.7819C85.0722 31.9439 84.6672 32.0249 84.2352 32.0249H83.5692C83.1372 32.0249 82.7292 31.9439 82.3452 31.7819C81.9672 31.6199 81.6342 31.3949 81.3462 31.1069C81.0582 30.8129 80.8332 30.4769 80.6712 30.0989C80.5092 29.7149 80.4282 29.3069 80.4282 28.8749V25.7249H81.3282V28.8749C81.3282 29.2889 81.4272 29.6669 81.6252 30.0089C81.8292 30.3449 82.1022 30.6149 82.4442 30.8189C82.7862 31.0229 83.1612 31.1249 83.5692 31.1249H84.2352C84.6492 31.1249 85.0242 31.0229 85.3602 30.8189C85.7022 30.6149 85.9722 30.3449 86.1702 30.0089C86.3742 29.6669 86.4762 29.2889 86.4762 28.8749V25.7249H87.3852ZM118.602 28.8749C118.602 29.3129 118.533 29.7239 118.395 30.1079C118.257 30.4859 118.059 30.8189 117.801 31.1069C117.549 31.3949 117.243 31.6199 116.883 31.7819C116.529 31.9439 116.136 32.0249 115.704 32.0249H112.527V31.1249H115.704C116.118 31.1249 116.475 31.0229 116.775 30.8189C117.075 30.6149 117.303 30.3449 117.459 30.0089C117.621 29.6669 117.702 29.2889 117.702 28.8749C117.702 28.4609 117.621 28.0829 117.459 27.7409C117.303 27.3989 117.075 27.1289 116.775 26.9309C116.475 26.7269 116.118 26.6249 115.704 26.6249H112.077V32.0249H111.177V25.7249H115.704C116.136 25.7249 116.529 25.8059 116.883 25.9679C117.243 26.1299 117.549 26.3579 117.801 26.6519C118.059 26.9399 118.257 27.2759 118.395 27.6599C118.533 28.0379 118.602 28.4429 118.602 28.8749ZM143.155 32.0249H142.255V25.7249H143.155V32.0249ZM174.688 28.8749C174.688 29.3129 174.619 29.7239 174.481 30.1079C174.343 30.4859 174.145 30.8189 173.887 31.1069C173.635 31.3949 173.332 31.6199 172.978 31.7819C172.624 31.9439 172.231 32.0249 171.799 32.0249H169.702C169.264 32.0249 168.868 31.9439 168.514 31.7819C168.16 31.6199 167.854 31.3949 167.596 31.1069C167.344 30.8189 167.149 30.4859 167.011 30.1079C166.873 29.7239 166.804 29.3129 166.804 28.8749C166.804 28.4429 166.873 28.0379 167.011 27.6599C167.149 27.2759 167.344 26.9399 167.596 26.6519C167.854 26.3579 168.16 26.1299 168.514 25.9679C168.868 25.8059 169.264 25.7249 169.702 25.7249H171.799C172.231 25.7249 172.624 25.8059 172.978 25.9679C173.332 26.1299 173.635 26.3579 173.887 26.6519C174.145 26.9399 174.343 27.2759 174.481 27.6599C174.619 28.0379 174.688 28.4429 174.688 28.8749ZM173.788 28.8749C173.788 28.4609 173.707 28.0829 173.545 27.7409C173.389 27.3989 173.161 27.1289 172.861 26.9309C172.567 26.7269 172.213 26.6249 171.799 26.6249H169.702C169.288 26.6249 168.931 26.7269 168.631 26.9309C168.337 27.1289 168.109 27.3989 167.947 27.7409C167.785 28.0829 167.704 28.4609 167.704 28.8749C167.704 29.2889 167.785 29.6669 167.947 30.0089C168.109 30.3449 168.337 30.6149 168.631 30.8189C168.931 31.0229 169.288 31.1249 169.702 31.1249H171.799C172.213 31.1249 172.567 31.0229 172.861 30.8189C173.161 30.6149 173.389 30.3449 173.545 30.0089C173.707 29.6669 173.788 29.2889 173.788 28.8749Z" fill="white"/>
<path d="M2.38672 20.7603H192.115" stroke="#FE3101" stroke-linecap="round"/>
</svg>
