<svg id="Layer_1" data-name="Layer 1" xmlns="http://www.w3.org/2000/svg" viewBox="0 0 1417.32 283.46"><path d="M761.53,70.67c27.07,0,54.14.07,81.21-.06,6.18,0,11.75.74,15,6.76,3.08,5.7,1.12,10.76-1.91,15.9q-28.59,48.55-56.94,97.26c-6.51,11.19-15.46,19-28.45,21.26a78.47,78.47,0,0,1-13.38.82q-78.29.07-156.58,0c-.78,0-1.56,0-2.34,0-11-.43-16.09-7.79-12.43-18.28a41,41,0,0,1,3.29-6.8q24.4-42.56,48.92-85a148.41,148.41,0,0,1,9.93-15.11c8.52-11.3,19.85-16.92,34.21-16.8C708.56,70.83,735.05,70.67,761.53,70.67ZM695.35,193.72v-.36c8,0,16-.22,23.94.08,5.79.22,9.24-2.19,12.09-7.18,15.56-27.19,31.4-54.22,47.14-81.31a33.77,33.77,0,0,0,2.49-4.62,7.65,7.65,0,0,0-6.37-10.73,21.87,21.87,0,0,0-2.92-.07c-16,.06-31.93.3-47.89.1-6-.08-9.66,2.13-12.64,7.34-15.63,27.37-31.55,54.58-47.36,81.85a36.08,36.08,0,0,0-2.24,4.09,7.63,7.63,0,0,0,5.73,10.64,21.31,21.31,0,0,0,4.08.16C679.38,193.73,687.36,193.72,695.35,193.72Z"/><path d="M468,212.35c12-20.67,23.43-40.26,35.15-60.42-1.7-.5-2.87-1.16-4.05-1.16-21.22,0-42.44.17-63.66.12-3.32,0-4.78,1.72-6.22,4.27-9.83,17.46-19.87,34.81-29.6,52.34-2,3.63-4.23,5.28-8.57,5.24-19.08-.16-38.16.06-57.24.13h-6.35c-.58-3.27,1.31-5,2.4-6.88Q361.1,151.92,392.48,97.9c4.49-7.74,9.08-15.43,13.43-23.25,1.49-2.68,3.19-3.91,6.4-3.9,20.25.09,40.5,0,60.75-.06a46.43,46.43,0,0,1,4.85.6c-11,20.45-23.17,39.53-34.27,60.06,2.3.27,3.75.6,5.2.6,20.64,0,41.28-.14,61.91,0,3.48,0,5.22-1.36,6.8-4.18,9.56-17.18,19.37-34.21,28.81-51.45,2.24-4.09,4.77-5.69,9.53-5.62,19.08.29,38.16.12,57.24.12h6.56a51,51,0,0,1-2,4.72q-38.37,66.5-76.74,133c-1.61,2.81-3.37,4.2-6.81,4.19-20.05-.09-40.1.08-60.16.13C472.42,212.85,470.89,212.6,468,212.35Z"/><path d="M336.82,131.58c-1.14,2.24-1.85,3.8-2.71,5.27q-15.72,27-31.48,54c-6.52,11.22-15.84,18.59-28.74,20.94a61.61,61.61,0,0,1-11,.85q-79.76.09-159.49,0a18.53,18.53,0,0,1-7.36-1.2c-6.83-3-9.36-9.32-6.88-16.44a37.14,37.14,0,0,1,3-6.32c18.7-32.58,37.53-65.08,56.12-97.72C155.3,78.49,166,71.72,179.91,71.1c16.7-.74,33.46-.36,50.2-.37q62.81,0,125.6,0H372.4c-3.91,6.5-7.12,12-10.53,17.33-.5.79-1.9,1.22-2.95,1.38a30.26,30.26,0,0,1-4.67.08l-119.76-.1c-1.56,0-3.11.06-4.67.14-7.14.4-12.59,3.57-16.2,9.83q-23.51,40.71-47,81.41c-3.93,6.84-.68,12.65,7.25,12.76,16,.21,31.94.1,47.9.16,4.87,0,8.56-2.33,11.71-5.7,6.48-7,10.36-15.48,14.32-23.94,1-2.19.15-4.08-1-6a122.05,122.05,0,0,1-6.55-11.7c-3.69-8,.26-14.41,9.1-15.13,1.35-.11,2.72-.08,4.09-.08q38.27,0,76.53,0C332,131.17,334.1,131.41,336.82,131.58Z"/><path d="M1118.05,69.94c-4.1,6.79-7.32,12.31-10.78,17.67a5.53,5.53,0,0,1-3.33,1.82,23.32,23.32,0,0,1-4.66.09c-40.5,0-81,.14-121.51-.1-9.22-.06-15.66,3.25-19.91,11.4-2.88,5.52-6.19,10.81-9.3,16.21-.39.67-.79,1.34-1.15,2-4.49,8.46-2.26,12.56,7.22,12.79,8.76.21,17.53.11,26.29.12h73c1.37,0,2.73-.05,4.09,0,10.42.48,16.69,10.35,11.73,19.46-8.19,15-16.59,30-25.72,44.46-7.21,11.44-18.58,17-32,17.54-10.3.41-20.63,0-30.95,0l-151.31.08h-7a26.61,26.61,0,0,1,1.45-3.89c2.45-4.21,5.11-8.29,7.47-12.55,1.4-2.53,3.27-3.38,6.13-3.37,25.9.11,51.8.08,77.7.1,16.55,0,33.1,0,49.66.08,6.69,0,11.59-2.7,14.79-8.55,4.2-7.69,8.52-15.3,12.58-23.06,3.12-5.95.45-10.34-6.29-10.75-1.36-.08-2.73,0-4.09,0h-97c-1.56,0-3.12.06-4.67,0C870.3,151,864.11,141.32,869,132.42c8.23-15,16.72-29.91,26-44.29,7.94-12.32,20.32-17.78,34.8-18.19,9-.25,17.92,0,26.88,0h161.4Z"/><path d="M1106.29,212.44l70.52-121.9c-5.65-1.87-10.67-.78-15.56-1-5.06-.2-10.12,0-15.19,0h-16.28c4.09-6.61,7.36-12,10.83-17.32.51-.78,1.94-1.15,3-1.33a24.12,24.12,0,0,1,4.08-.08h181.44a123.32,123.32,0,0,1-10.21,17.41c-.81,1.13-3.5,1.23-5.33,1.24-17.91.09-35.83,0-53.74.07-4.07,0-8.87-1-12,.77s-4.69,6.43-6.72,10c-20.52,35.56-41.09,71.09-61.38,106.79-2.49,4.36-5.22,5.76-10.09,5.71-18.49-.21-37,.05-55.48.09C1112,212.86,1109.72,212.63,1106.29,212.44Z"/></svg>