<svg id="Layer_1" data-name="Layer 1" xmlns="http://www.w3.org/2000/svg" viewBox="0 0 1417.32 283.46"><defs><style>.cls-1{fill:#fff;}</style></defs><path d="M799.83,145.13c15.59,14.09,29.85,29.69,44.7,45.57a21.21,21.21,0,0,1-2.86.49c-17.68,0-35.36,0-53,.05a5.46,5.46,0,0,1-4.6-2.12c-2.48-3-5-6-7.48-9.06-7.4-9-14.82-17.92-22.17-26.93a5.93,5.93,0,0,0-5.13-2.55c-4.39.11-8.78-.09-13.17,0-3.33,0-3.61.4-3.58,3.76.09,10.67.21,21.35.26,32a40.93,40.93,0,0,1-.53,4.65H688.46c-.09-1.41-.27-2.77-.27-4.13q0-33.28,0-66.57V53.36c0-1,0-1.9,0-2.85a1.93,1.93,0,0,1,2.11-2.26c1,0,1.89-.09,2.84-.09,22.55,0,45.1-.17,67.65.19,8.39.13,16.75,1.55,25.13,2.35a65.82,65.82,0,0,1,27.71,9.45,56,56,0,0,1,8.76,6.65c9,8.23,13,18.69,13.29,30.77.28,11.69-2.59,22.36-10.11,31.47a43.51,43.51,0,0,1-24.34,15.07c-.35.08-.69.18-1,.29C800.13,144.43,800.1,144.59,799.83,145.13Zm-66.71-27.2H750c6.4,0,12.8,0,19.19-.11a27.48,27.48,0,0,0,14.46-4.31c9.33-6.07,8.8-18.93-1-24.18a19.07,19.07,0,0,0-5.61-2.14,83.15,83.15,0,0,0-12-1.31c-9.47-.18-19-.06-28.43-.06H733.3C732.31,88.86,732.19,114.17,733.12,117.93Z"/><path d="M928.84,193.28a135.82,135.82,0,0,1-31.18-2.94A80.72,80.72,0,0,1,876,182.5c-15-7.88-24.21-20.38-28.18-36.63-4.5-18.42-4.55-36.93.81-55.21A52.9,52.9,0,0,1,861.79,68.2c8.3-8.52,18.12-13.74,29.42-17.07,14.2-4.2,28.72-5.17,43.3-4.94,13.64.2,27.18,1.94,40.12,6.81,16.36,6.16,28.67,16.68,34.9,33.29a79.12,79.12,0,0,1,5.34,27.81c0,8.06.47,16.17-1.31,24.11a104,104,0,0,1-4.58,16.4c-6.2,15.4-17.65,25.53-33.05,31.39C961.19,191.6,945.89,193.65,928.84,193.28Zm-43.31-73c.65,5,1,10.13,2,15.1,2.11,10.35,9.72,17.18,20.11,18.9a130.77,130.77,0,0,0,38.6.81,66.33,66.33,0,0,0,9.4-1.79c8.28-2.35,13.78-7.65,16-16.08a71.89,71.89,0,0,0,1.19-30.68c-2.28-13-9.49-19.7-22.51-21.55-3.16-.45-6.34-.89-9.53-1.07-12.22-.73-24.4-.93-36.38,2.3-8.49,2.28-14.07,7.44-16.34,16.06A89.13,89.13,0,0,0,885.53,120.27Z"/><path d="M676.48,135H603.24c-.86,2.63-1.07,13.82-.35,19,24.41,0,48.9,0,73.59,0v36.73H558.05V48.45c1.17-.07,2.31-.2,3.46-.2q34.54,0,69.08,0c5.69,0,10.95,2,16.11,4.08A51.76,51.76,0,0,1,665.38,65a45.65,45.65,0,0,1,9.7,16.82,12.51,12.51,0,0,1,.46,2.44,6.67,6.67,0,0,1-.28,1.49H602.72V102.2h73.76Z"/><path d="M402.85,48.62c8.95.84,16.44,4.83,23.73,9.32a42.38,42.38,0,0,1,16.31,18.8c3.72,8,3.88,16.5,3.85,25.26,1.32.1,2.34.25,3.37.25,6.29,0,12.58,0,18.87,0,10.88,0,19.56,4.53,25.76,13.35,2.49,3.54,4.1,7.71,6.1,11.59a3.22,3.22,0,0,0,1.44,1.69V48.83a14.44,14.44,0,0,1,2.75,0c13.55,3.15,25.43,9,33.77,20.69a41.13,41.13,0,0,1,7.79,24.34q.12,46.63,0,93.27c0,1-.12,2.09-.18,3-3.41,1.15-39.43,1.15-44.06,0V135.67c-2.85-.88-51.43-1-55.57-.2v54.74a11.12,11.12,0,0,1-2.55.71q-20.11,0-40.23,0a3.47,3.47,0,0,1-1-.26C402.35,188,402.1,54.4,402.85,48.62Z"/><path d="M873.5,222.51a57.52,57.52,0,0,0-2.42,6.85,53.32,53.32,0,0,0-.65,7h-260c-.85-2.6-1-27.19-.25-30.94,2.58-.75,280.29-1.21,290.38-.47a22.66,22.66,0,0,1-4.39,9.1c-2.61,3.23-4.82,6.8-7.57,9.89a110.45,110.45,0,0,1-9,8.62c-1.08,1-2.41,2.38-4.06,1.37-2-1.2-1.39-3.25-.65-4.8,2-4.27,4.29-8.42,6.51-12.59.64-1.19,1.44-2.3,2.22-3.54-2.07-1.53-3.55-.77-4.85.29-3.5,2.82-6.93,5.74-10.61,8.55.92-1.18,1.84-2.37,2.77-3.54,2-2.51,4-5,5.9-7.57a2.65,2.65,0,0,0-.07-2.49c-.78-1-2-.61-2.82.2a11.22,11.22,0,0,0-1.35,1.64q-6.72,9.42-13.41,18.85a3.06,3.06,0,0,0-.21.29c-.67,1.19-2,2.27-1.08,3.81.6,1,2.47.66,4.4-1,3-2.65,5.93-5.46,8.89-8.2.59-.55,1.2-1.07,1.79-1.61Z"/><path d="M880.69,236.35c4.32-4.52,8.67-8.71,12.59-13.28a110.1,110.1,0,0,0,8.37-11.48c1.26-1.92,1.93-4.24,3-6.64a1.33,1.33,0,0,1,.61-.13q38.28,0,76.55,0c12,0,20.9,5.55,26.89,15.71,2.08,3.53,3.4,7.53,4.9,11.38a17.4,17.4,0,0,1,.56,4C1011.15,236.75,886.72,237,880.69,236.35Zm78.6-6.18a9.15,9.15,0,0,0-1.8.19c-1.75.71-3.45,1.59-5.24,2.19-2.69.91-4-.1-3.41-2.9a15.81,15.81,0,0,1,2.51-5.78c2.42-3.35,5.24-6.4,7.8-9.65.5-.64,1-1.85.74-2.38-.63-1.19-1.9-.8-2.78-.15a24.32,24.32,0,0,0-3.47,3c-1.86,2-3.59,4.06-5.41,6.13a6.37,6.37,0,0,0-6.52,1c-3.13,2.31-6.09,4.85-9.08,7.35a6.27,6.27,0,0,0-1.29,1.68c-1.24,2.11-.41,4.11,2,4.49a5.4,5.4,0,0,0,3.06-.5c1.89-.94,3.65-2.16,5.46-3.27.85-.52,1.69-1.06,2.79-1.76a31.16,31.16,0,0,0,.48,3.2,4,4,0,0,0,3.08,3.1C951.88,237,957.3,234.25,959.29,230.17Zm23.55-15,.53.39c-3.22,5.45-6.45,10.9-9.73,16.46a17.7,17.7,0,0,0-3.68.58,2.61,2.61,0,0,0-1.2,1.9c-.06.44.72,1.42,1.14,1.43q5.83.15,11.69,0c.49,0,1.37-.89,1.34-1.3a2.67,2.67,0,0,0-1.14-1.92,13.78,13.78,0,0,0-3.33-.8,31.12,31.12,0,0,1,1.75-4c2.66-4.33,5.42-8.59,8.16-12.88a25.73,25.73,0,0,0,2.32-3.55,3.78,3.78,0,0,0,0-2.88c-.21-.4-1.8-.47-2.54-.16-3,1.29-6,2.77-9,4.19-.32.15-.74.35-.84.62-.27.73-.72,1.67-.46,2.23s1.35.82,2,.75A13.9,13.9,0,0,0,982.84,215.16ZM904.79,220c-5.13.11-12,6.14-12.74,11.24-.53,3.52,1.84,5.58,5.41,4.71,4.74-1.15,10.1-7.28,10.67-12.19C908.42,221.22,907.32,220,904.79,220Zm21.8,15.19c.57-4.94.51-5,3.29-9.42,2.65-4.21,5.45-8.33,8.18-12.49a8.69,8.69,0,0,0,1.45-2.42c.2-.79.13-2.12-.37-2.49a2.71,2.71,0,0,0-2.56.09,9.11,9.11,0,0,0-2.18,2.74c-1.87,3-3.7,6.06-5.51,9.11-1.62,2.76-3.24,5.52-4.75,8.33A11,11,0,0,0,923,232C922.57,234.61,923.41,235.34,926.59,235.22Zm-6.21-7.88c2.79-1.36,4-3.66,3.27-5.77a2.26,2.26,0,0,0-3-1.71c-1.13.32-2.17.88-3.27,1.29-.75.28-1.62.81-2.26.63-1.5-.41-2.28.34-2.93,1.36-1.76,2.79-3.46,5.61-5.15,8.45a2.63,2.63,0,0,0-.48,1.65c.18.72.58,1.67,1.16,1.92a2.42,2.42,0,0,0,2.12-.51,9.19,9.19,0,0,0,1.45-2.39,19.57,19.57,0,0,1,7.35-7.93c.25-.15.66,0,1.07,0Z"/><path d="M437.05,212.75c-2.56,0-5.12-.05-7.68,0a71.29,71.29,0,0,0-8.15.43,12.65,12.65,0,0,0-4.94,1.81,6.71,6.71,0,0,0,.21,11.72,12,12,0,0,0,5.38,1.44c4.14.19,8.29,0,12.44,0,3.69,0,3.84.21,3.87,3.79a8.26,8.26,0,0,0,.66,3.76L452.15,222,437.3,206.48c3.86-3.52,9.1-3.95,13.15-1a45.39,45.39,0,0,1,4.87,4.65c1.25,1.24,2.44,2.54,3.8,4,4.41-2.6,6.33-7.62,10.67-9.89,4,5.32,4.19,9.4.1,14.24-3.9,4.6-8.16,8.91-12.38,13.24-6.45,6.6-3.7,5.47-13.49,5.52-6.29,0-12.57.11-18.85.09a32.94,32.94,0,0,1-12.55-2.09c-8.4-3.45-12.42-13.18-8.73-21.21,2.43-5.3,7-8,12.4-9.16,3.67-.77,7.53-.71,11.31-.86a4.38,4.38,0,0,1,2.94.89c2.38,2.27,4.56,4.76,6.82,7.17Z"/><path d="M568.74,213.1H553c-.59,3.13-.45,3.48,1.88,3.53,3,.06,5.92-.13,8.89-.14,1.73,0,3.46.13,5.08.19.94,4.11.94,4.58-.07,7.57H552.67v4h9.64a7.66,7.66,0,0,1,1.07,0c1.91.28,4.6-1.09,5.56,1a9.48,9.48,0,0,1,0,7.64,12.1,12.1,0,0,1-1.77.27c-7.47,0-14.94.05-22.41,0-2.67,0-3-.32-3-2.76,0-9.36,0-18.73,0-28.09a7,7,0,0,1,.35-1.47,14.37,14.37,0,0,1,2.09-.33c5,0,10-.11,14.93,0A9.77,9.77,0,0,1,568.74,213.1Z"/><path d="M571.7,236.64v-8.41c4.18,0,8.18,0,12.17,0,1.31,0,2.61,0,3.91,0s2.63-.56,2.6-2.25c0-1.5-1.14-2-2.44-2-1.66-.05-3.32.07-5,0a34.75,34.75,0,0,1-6.31-.73c-4.12-1.09-6.25-4-6.49-8.3s2-8.29,5.84-9.64a30.66,30.66,0,0,1,15.44-.83c3.89.66,5,4.18,6.23,8a21.58,21.58,0,0,1-3.12.51c-3.91,0-7.82-.06-11.73,0-1.42,0-3.53-.34-3.52,1.91s2,1.85,3.49,1.92c3,.14,5.93.15,8.84.57,4.85.72,7.07,3,7.48,7.15.59,5.83-1.31,9.55-5.85,11.29a10.11,10.11,0,0,1-3.45.74C583.91,236.67,578,236.64,571.7,236.64Z"/><path d="M508.36,228.21c1.42,2.88.52,5.59.55,8.15-.27.26-.45.56-.61.56-6.75-.07-13.5,0-20.23-.34-3.48-.19-6.44-2.11-9.18-4.33-8.14-6.59-7.45-21.48,4.4-26.24,5.19-2.08,10.66-2,16.12-1.95a1.84,1.84,0,0,1,1,.22,35.58,35.58,0,0,1,8.15,8.48c-3.35,0-6,0-8.7,0a56,56,0,0,0-7.45.37,15.38,15.38,0,0,0-5.27,1.9,6.24,6.24,0,0,0-3.33,6.24,6.73,6.73,0,0,0,4.76,6.08,19.29,19.29,0,0,0,5.22.88c3.68.12,7.36,0,11,0Z"/><path d="M522,226.55c2.72,0,5.07,0,7.41,0,4.65,0,7.78,2.51,9.91,6.37a17.82,17.82,0,0,1,1,3.94H511.78v-32a9.28,9.28,0,0,1,9.62,7.67,78.53,78.53,0,0,1,.54,8.83C522,222.92,522,224.45,522,226.55Z"/><path class="cls-1" d="M959.29,230.17c-2,4.08-7.41,6.84-11.09,6a4,4,0,0,1-3.08-3.1,31.16,31.16,0,0,1-.48-3.2c-1.1.7-1.94,1.24-2.79,1.76-1.81,1.11-3.57,2.33-5.46,3.27a5.4,5.4,0,0,1-3.06.5c-2.4-.38-3.23-2.38-2-4.49a6.27,6.27,0,0,1,1.29-1.68c3-2.5,6-5,9.08-7.35a6.37,6.37,0,0,1,6.52-1c1.82-2.07,3.55-4.16,5.41-6.13a24.32,24.32,0,0,1,3.47-3c.88-.65,2.15-1,2.78.15.27.53-.24,1.74-.74,2.38-2.56,3.25-5.38,6.3-7.8,9.65a15.81,15.81,0,0,0-2.51,5.78c-.6,2.8.72,3.81,3.41,2.9,1.79-.6,3.49-1.48,5.24-2.19A9.15,9.15,0,0,1,959.29,230.17Zm-24.17,1.17c4.36-1.35,7.71-4,9.16-7A27.34,27.34,0,0,0,935.12,231.34Z"/><path class="cls-1" d="M982.84,215.16a13.9,13.9,0,0,1-3,1c-.67.07-1.8-.27-2-.75s.19-1.5.46-2.23c.1-.27.52-.47.84-.62,3-1.42,6-2.9,9-4.19.74-.31,2.33-.24,2.54.16a3.78,3.78,0,0,1,0,2.88,25.73,25.73,0,0,1-2.32,3.55c-2.74,4.29-5.5,8.55-8.16,12.88a31.12,31.12,0,0,0-1.75,4,13.78,13.78,0,0,1,3.33.8,2.67,2.67,0,0,1,1.14,1.92c0,.41-.85,1.28-1.34,1.3q-5.85.18-11.69,0c-.42,0-1.2-1-1.14-1.43a2.61,2.61,0,0,1,1.2-1.9,17.7,17.7,0,0,1,3.68-.58c3.28-5.56,6.51-11,9.73-16.46Z"/><path class="cls-1" d="M904.79,220c2.53-.05,3.63,1.19,3.34,3.76-.57,4.91-5.93,11-10.67,12.19-3.57.87-5.94-1.19-5.41-4.71C892.83,226.17,899.66,220.14,904.79,220Zm-8.13,12.56a8.93,8.93,0,0,0,7.15-8.21C898.49,225.29,895.71,228.47,896.66,232.59Z"/><path class="cls-1" d="M926.59,235.22c-3.18.12-4-.61-3.6-3.21a11,11,0,0,1,1.15-3.34c1.51-2.81,3.13-5.57,4.75-8.33,1.81-3.05,3.64-6.1,5.51-9.11a9.11,9.11,0,0,1,2.18-2.74,2.71,2.71,0,0,1,2.56-.09c.5.37.57,1.7.37,2.49a8.69,8.69,0,0,1-1.45,2.42c-2.73,4.16-5.53,8.28-8.18,12.49C927.1,230.24,927.16,230.28,926.59,235.22Z"/><path class="cls-1" d="M920.38,227.34l-.66-3c-.41,0-.82-.13-1.07,0a19.57,19.57,0,0,0-7.35,7.93,9.19,9.19,0,0,1-1.45,2.39,2.42,2.42,0,0,1-2.12.51c-.58-.25-1-1.2-1.16-1.92a2.63,2.63,0,0,1,.48-1.65c1.69-2.84,3.39-5.66,5.15-8.45.65-1,1.43-1.77,2.93-1.36.64.18,1.51-.35,2.26-.63,1.1-.41,2.14-1,3.27-1.29a2.26,2.26,0,0,1,3,1.71C924.36,223.68,923.17,226,920.38,227.34Z"/><path d="M935.12,231.34a27.34,27.34,0,0,1,9.16-7C942.83,227.33,939.48,230,935.12,231.34Z"/><path d="M896.66,232.59c-.95-4.12,1.83-7.3,7.15-8.21A8.93,8.93,0,0,1,896.66,232.59Z"/></svg>