<svg id="Layer_1" data-name="Layer 1" xmlns="http://www.w3.org/2000/svg" viewBox="0 0 1417.32 283.46"><defs><style>.cls-1{fill:#aaa;}.cls-1,.cls-2,.cls-3,.cls-4{fill-rule:evenodd;}.cls-2{fill:#595959;}.cls-4{fill:#7f7f7f;}</style></defs><path class="cls-1" d="M332.73,23.6A118.13,118.13,0,1,1,214.6,141.73,118.13,118.13,0,0,1,332.73,23.6Z"/><path class="cls-2" d="M332.73,9.45A132.28,132.28,0,1,1,200.45,141.73,132.29,132.29,0,0,1,332.73,9.45Zm0,14.15A118.13,118.13,0,1,1,214.6,141.73,118.13,118.13,0,0,1,332.73,23.6Z"/><path class="cls-3" d="M332.73,91.69s10.69-1.19,22.32,6a298.7,298.7,0,0,1,20.59-24c8.2-8.5,14.61-14.17,17.6-18.79,1.19,3.28,5.07,15.51-4.33,56.68,3.43,4.17,15.36,16.7,26.1,35.35-2.68.45-8.5.59-8.5.59s10.14,7.46,16.71,15.52c-24.7-1.43-63.57,12.2-80.55,65.63H322.79c-17-53.43-55.85-67.06-80.55-65.63,6.56-8.06,16.71-15.52,16.71-15.52s-5.82-.14-8.51-.59c10.74-18.65,22.68-31.18,26.11-35.35-9.4-41.17-5.52-53.4-4.33-56.68,3,4.62,9.4,10.29,17.6,18.79a298.7,298.7,0,0,1,20.59,24c11.63-7.16,22.32-6,22.32-6ZM320,175.06s-1.52-3.82-2.86-8-5.73-17.75-23.2-18.13c6.24,11.3,7.85,24.26,26.06,26.15Zm25.53,0s1.53-3.82,2.87-8,5.73-17.75,23.19-18.13c-6.23,11.3-7.84,24.26-26.06,26.15Z"/><path class="cls-4" d="M630.46,87.64H562.33c-5.71,0-15.86,0-19.5,15.54l-15.17,64.74s-5.15,22.3-11.56,27.67h28.74c3.14-.18,14.25,1.15,18-14.87s6.37-27.2,6.37-27.2h34.41l8.07,4.38,8-34.37-14,5.66H574.91l3.92-16.74h35c1.47,0,6.07,0,9.49,5.8l7.17-30.61Z"/><path class="cls-4" d="M636.4,102.82s2-14.95,19.81-14.95h26.67s-5.59,5.51-8.41,17.55c-5.9,25.21-11.84,50.28-17.74,75.46,0,0-2,14.94-19.82,14.94H610.25s5.58-5.51,8.4-17.55c5.91-25.21,11.85-50.28,17.75-75.45Z"/><path class="cls-4" d="M767.29,87.87H708.62c-5.71,0-15.86,0-19.5,15.54S674,168.16,674,168.16s-5.16,22.29-11.56,27.66h28.74c3.14-.18,14.24,1.16,18-14.87s6.37-27.2,6.37-27.2H725.6l5.63,42.07H778l-9.58-13.57-4.53-29.7c12.26,0,14.38-12.34,14.38-12.34l7.64-32.63c4.83-20.63-18.59-19.71-18.59-19.71Zm-42.17,24.81h20.6c.77,0,1.56.65,1.39,1.4L744,128c-.17.75-.63,1.39-1.4,1.39H721.2l3.92-16.74Z"/><path class="cls-4" d="M887.12,87.87H819c-5.71,0-15.86,0-19.5,15.54s-15.16,64.75-15.16,64.75c-5.37,23.22,7.93,27.56,15.61,27.66h60.59l12.39-31.52-16.61,7H821.76c2.47-10.55,4.12-17.58,4.12-17.58h34.4l8.07,4.38,8-34.37-14,5.66H831.57l3.92-16.74h35c1.47,0,6.08,0,9.49,5.8l7.17-30.61Z"/><path class="cls-4" d="M983.21,87.87H915.08c-5.71,0-15.86,0-19.5,15.54s-15.16,64.75-15.16,64.75-5.16,22.29-11.57,27.66h28.74c3.15-.18,14.25,1.16,18-14.87s6.37-27.2,6.37-27.2h34.41l8.07,4.38,8-34.37-14,5.66H927.66l3.92-16.74h35c1.47,0,6.08,0,9.49,5.8l7.17-30.61Z"/><path class="cls-4" d="M1067,87.87h-58.67c-5.71,0-15.86,0-19.5,15.54l-17.06,72.7c-4.85,20.63,18.6,19.71,18.6,19.71h58.66c5.71,0,15.86,0,19.5-15.54l17.06-72.7C1090.45,87,1067,87.87,1067,87.87Zm-42,24.81h21.26c.77,0,1.57.65,1.39,1.4l-13.06,55.86c-.18.75-.63,1.39-1.4,1.39h-21.28c-.77,0-1.57-.64-1.39-1.39l13.09-55.86c.17-.75.62-1.4,1.39-1.4Z"/><path class="cls-4" d="M1150.49,102.82s-4.23-14.95-24.28-14.95h-30s7,5.51,11.78,17.55q7.59,19.1,15.17,38.13l-38.75,38.3c-5.87,5.87-14.72,11.37-20.18,14h44c-1.4-2,0-4.45,0-4.45l24.21-24.57q2.79,7,5.59,14.08s4.22,14.94,24.28,14.94h30s-7-5.51-11.79-17.55q-8.52-21.5-17.07-42.9c14.84-15,27.7-28,30.94-31.22,8.65-8.52,22.5-16.28,22.5-16.28h-42.58c.17,5.14-2.11,7.25-2.11,7.25l-17.77,17.57q-2-4.93-3.92-9.87Z"/><path class="cls-3" d="M1079.86,191.44h23.66a8.55,8.55,0,0,1,.93-2.28l.27-.48.39-.39,24.2-24.57,4.72-4.78,2.48,6.24,5.59,14.08.08.21.06.21a16.66,16.66,0,0,0,3.59,5.68c4.32,4.52,10.38,6.08,16.48,6.08h20.28a57,57,0,0,1-6.16-11.55q-8.52-21.46-17.07-42.9l-1.06-2.66,2-2,19.82-20c3.71-3.74,7.41-7.51,11.16-11.21,1.73-1.7,3.56-3.3,5.45-4.83,1.65-1.33,3.38-2.65,5.17-3.94h-23.64a11.7,11.7,0,0,1-3,6l-22.44,22.18-2.45-6.16q-1.95-4.93-3.92-9.87l-.08-.21-.06-.21a16.49,16.49,0,0,0-3.58-5.68c-4.32-4.52-10.38-6.07-16.48-6.07h-20.29a56.67,56.67,0,0,1,6.17,11.54q7.56,19.08,15.16,38.13l1.08,2.69-2.07,2q-19.37,19.14-38.75,38.29a70.09,70.09,0,0,1-7.65,6.48Z"/><path class="cls-3" d="M1067.1,92.26h-58.75c-2.9,0-5.85,0-8.49,1.44-4,2.07-5.77,6.6-6.74,10.71l-17.06,72.71c-1.29,5.49-.61,10,4.83,12.52a22.82,22.82,0,0,0,9.33,1.8h58.83c2.9,0,5.86-.06,8.49-1.45,4-2.07,5.78-6.6,6.74-10.71l17.07-72.7c1.29-5.5.61-10-4.83-12.53a22.89,22.89,0,0,0-9.33-1.8Zm-42.07,16h21.26a5.66,5.66,0,0,1,5.66,6.78l-13.06,55.86a5.87,5.87,0,0,1-5.67,4.78h-21.28a5.66,5.66,0,0,1-5.66-6.78l13.09-55.86a5.85,5.85,0,0,1,5.66-4.78Z"/><path class="cls-3" d="M977.68,92.26h-62.6c-2.9,0-5.86,0-8.49,1.44-4,2.07-5.78,6.59-6.74,10.71q-7.59,32.37-15.17,64.74c-1.29,5.56-3.95,15.11-7.54,22.29h20.34c2.56-.14,4.55.07,7-1.09,4-1.86,5.86-6.35,6.81-10.4q3.18-13.6,6.37-27.2l.79-3.38h39l4,2.17L966.3,131l-6.95,2.81H922.13l6-25.51h38.44a14.61,14.61,0,0,1,7,1.67q2.07-8.86,4.15-17.71Z"/><path class="cls-3" d="M881.59,92.26H819c-2.9,0-5.85,0-8.49,1.44-4,2.07-5.78,6.59-6.74,10.71q-7.57,32.37-15.16,64.73c-1.29,5.56-2.33,13.91,1.89,18.58,2.36,2.61,6,3.66,9.47,3.71h57.59l7.48-19-7.83,3.32h-41l1.26-5.39q2.06-8.79,4.12-17.58l.79-3.38h39l4,2.17L870.21,131l-7,2.81H826.05l6-25.51h38.44a14.61,14.61,0,0,1,7,1.67q2.09-8.86,4.15-17.71Z"/><path class="cls-3" d="M670.69,191.44H691c2.57-.14,4.55.07,7-1.09,4-1.86,5.86-6.35,6.81-10.4q3.18-13.6,6.37-27.2l.79-3.38h17.41l5.62,42.07h34.45l-5.29-7.51-5.46-35.76h5.1A9.12,9.12,0,0,0,772,144a13.41,13.41,0,0,0,1.92-4.5l0-.13,0-.13,7.65-32.63c1.28-5.5.61-10-4.84-12.53a22.81,22.81,0,0,0-9.32-1.8H708.62c-2.9,0-5.85,0-8.49,1.44-4,2.07-5.78,6.59-6.74,10.71q-7.57,32.37-15.16,64.74c-1.29,5.56-4,15.11-7.54,22.29Zm51-83.14h24.07a5.66,5.66,0,0,1,5.67,6.73l-3.12,14a5.88,5.88,0,0,1-5.68,4.82H715.68l6-25.51Z"/><path class="cls-3" d="M618.5,191.44h18.41c5.08,0,10-1.39,13.05-5.64a14.17,14.17,0,0,0,2.43-5.5l0-.21.05-.21q8.84-37.74,17.75-75.46a52,52,0,0,1,4.42-12.16H656.21c-5.08,0-9.94,1.39-13.05,5.63a14.3,14.3,0,0,0-2.42,5.5l0,.22-.05.21q-8.83,37.73-17.74,75.45a52.65,52.65,0,0,1-4.42,12.17Z"/><path class="cls-3" d="M624.93,92h-62.6c-2.91,0-5.86.06-8.5,1.44-4,2.08-5.77,6.6-6.73,10.72q-7.59,32.37-15.17,64.74c-1.29,5.55-3.95,15.11-7.54,22.28h20.33c2.57-.13,4.56.08,7-1.08,4-1.87,5.86-6.35,6.81-10.4q3.2-13.6,6.37-27.2l.8-3.39h39l4,2.18,4.81-20.55-6.94,2.81H569.38l6-25.5H613.8a14.72,14.72,0,0,1,7,1.66q2.07-8.85,4.15-17.71Z"/></svg>