<svg id="Layer_1" data-name="Layer 1" xmlns="http://www.w3.org/2000/svg" viewBox="0 0 1417.32 283.46"><path d="M260.42,54.22V78.46c5-2.55,8.5-6.76,13.94-7.76a4.11,4.11,0,0,1,.09,1.27c-3.05,9-5.57,18.3-11.65,26a20.69,20.69,0,0,0-2.65,4.23c-.55,1.23-1.14,2.79-.82,4,.49,1.87,1.33,4.18,2.78,5.07,1,.63,3.88-.24,4.9-1.37a53.26,53.26,0,0,0,7.35-10c4.85-8.82,5.72-18.7,6.61-28.49.93-10.16,1.5-20.35,2.49-30.49a7.46,7.46,0,0,1,2.66-4.78c8.2-5.9,16.58-11.55,24.95-17.23a8.55,8.55,0,0,1,2.5-.72,7.71,7.71,0,0,1,.57,2.28c-1.75,29.77-5.57,59.24-13.11,88.15-4.47,17.14-9.57,34.1-17.44,50-6.44,13-15.21,24.58-24.11,36a16.91,16.91,0,0,1-1.82,1.61c.43-1.86.62-2.9.92-3.91,2-7,4.05-13.88,6-20.83a9,9,0,0,0,0-2.58c-1,.05-2.23-.27-2.87.21a30.41,30.41,0,0,0-5.22,4.91c-8.23,10.4-11.8,22.51-12.83,35.55-.43,5.45-1.07,10.89-1.69,16.32a19.09,19.09,0,0,1-6.4,12.34c-12.44,11.12-25,22.1-37.54,33.12a21.27,21.27,0,0,1-2.74,1.65c-.17-2.85-.45-5.11-.43-7.37q.42-38.26,1-76.52a5.08,5.08,0,0,1,1.6-3.23c6.65-6.06,13.41-12,20.13-18,2.46-2.2,2.25-3.75-.85-5a10.1,10.1,0,0,0-3.78-.69c-13.73-.05-27.47,0-41.2,0a5.5,5.5,0,0,0-2.46.26,9.94,9.94,0,0,0-3.58,2.77c-.26.39,1.16,2.22,2.1,3.06,6.5,5.81,13.12,11.49,19.57,17.35a5.72,5.72,0,0,1,1.72,3.72c.29,18.93.45,37.85.63,56.77q.11,11.84.15,23.66c0,1-.13,1.94-.24,3.38a14.46,14.46,0,0,1-2.27-1.24q-19-16.76-37.93-33.53c-4.07-3.58-6-8-6.55-13.35-1.08-9.67-2.16-19.36-3.87-28.92-1.83-10.22-7.19-18.77-14.25-26.29-1.14-1.21-2.53-2.05-3.83-.88-.62.56-.62,2.26-.34,3.3,1.85,6.88,3.86,13.73,5.81,20.59a5.23,5.23,0,0,1,.12,2.8c-.63-.75-1.26-1.48-1.88-2.23C104.3,169.31,92,141.37,84.34,111a448.36,448.36,0,0,1-13.46-90.6,15.32,15.32,0,0,1,0-1.66,6,6,0,0,1,.41-1.13,24.93,24.93,0,0,1,2.37,1.26c8.39,5.8,16.74,11.66,25.19,17.38a6.24,6.24,0,0,1,2.82,5.29c1.18,14.69,2.21,29.4,4,44a40.83,40.83,0,0,0,9.09,21.22,23.06,23.06,0,0,0,4.07,3.76c2.69,2,4.09,1.63,5.88-1.22a7.29,7.29,0,0,0,.31-7.19A13.14,13.14,0,0,0,123,98.83c-6.38-7.36-8.85-16.6-12.23-25.4a6.1,6.1,0,0,1,.1-2.35c1,.11,2.06-.06,2.81.38,3.5,2.06,6.89,4.29,10.79,6.76V54.3a40.07,40.07,0,0,1,3.63,1.89Q157,75.93,186,95.69a5.34,5.34,0,0,1,2.66,5q-.13,26.86,0,53.74c0,1.47.63,3.48,1.7,4.29,2.39,1.82,5.25-.12,5.37-3.47.24-6.49.52-13,.55-19.47.06-11.31,0-22.63-.12-33.95a7.35,7.35,0,0,1,3.39-6.6q29.08-19.8,58.15-39.64A27.5,27.5,0,0,1,260.42,54.22ZM119.07,81c-.17,3.88,1.62,6.29,3.68,8.46q13.71,14.39,27.54,28.66a20,20,0,0,1,5.94,11.63c1.22,9.36,2.63,18.7,4,28a14.21,14.21,0,0,0,1,2.73c4.76-1.9,6.63-5.26,5.5-9.72-2.1-8.25-4-16.55-6.52-24.69a22.78,22.78,0,0,0-4.81-8.53c-4.93-5.41-10.39-10.31-15.54-15.52-6.31-6.38-12.51-12.87-18.76-19.29C120.61,82.26,120.05,81.84,119.07,81Zm147.44,2-.77-.58a16.65,16.65,0,0,0-1.61,1.27C252.28,95.47,240.4,107.2,228.64,119a11.58,11.58,0,0,0-2.79,5c-2.58,9.53-4.89,19.13-7.41,28.67-.74,2.78.19,4.65,2.4,6.19,2.7,1.89,4,1.43,4.44-1.81,1.35-9.35,2.76-18.7,3.89-28.08a16.8,16.8,0,0,1,4.9-10.23C243.68,109,253.15,99,262.55,89,264.17,87.31,265.2,85,266.51,83Z"/><path d="M714.8,145.43c1.18,1.74,2.06,3.12,3,4.46q11.24,15.88,22.44,31.8a12.85,12.85,0,0,1,1.11,2.66,12.58,12.58,0,0,1-2.59.54c-12.06.07-24.12,0-36.18.15a5.53,5.53,0,0,1-5.09-2.65q-13.82-19.84-27.73-39.63c-2-2.94-1.34-4.48,2-5.68,10.59-3.81,21.19-7.61,31.64-11.76a16.28,16.28,0,0,0,6.43-5.07c3.71-4.81,1.26-10.09-4.81-10.43-5.73-.32-11.49,0-17.23-.09-4.17,0-8.34,0-12.5-.3-2.86-.17-4.32.72-5.1,3.68-6,22.85-12.23,45.66-18.26,68.51-.67,2.52-1.71,3.47-4.36,3.43-10.94-.15-21.89-.13-32.84-.11-2.17,0-3-.55-2.39-2.94Q624.72,135.84,637,89.67c.58-2.19,2-2.23,3.8-2.22q30.06.12,60.11.2c8.7,0,17.48-.7,26,1.76,4,1.18,8.26,2.48,11.75,4.72,11.36,7.3,13.44,22.42,5,33.4-5.68,7.4-13.51,11.66-21.89,15.14C719.6,143.55,717.46,144.37,714.8,145.43Z"/><path d="M444.29,148.72h-12c-6.59,0-13.18.15-19.76-.07-2.81-.09-3.88,1-4.53,3.54-2.51,10-5.27,20-7.8,30-.5,2-1.4,2.75-3.43,2.75-10.66,0-21.33,0-32,.05-.56,0-1.11-.06-1.67-.07-2.29,0-3-.93-2.37-3.32,2.32-8.26,4.47-16.58,6.68-24.87q8.87-33.18,17.68-66.38c.42-1.59.92-2.86,2.78-2.86,12.33,0,24.65,0,37.65,0l-9.69,35.9c1.27.11,2.15.26,3,.26,9.74,0,19.48-.06,29.22.06,2.32,0,3.22-.78,3.78-3,1.94-7.6,4.25-15.11,6.13-22.72,1.51-6.17,5.66-9.73,11.46-10.07,10.05-.59,20.15-.16,30.68-.16C499,92,498,96,497,100c-7.35,27.37-14.76,54.74-22,82.13-.56,2.12-1.41,2.84-3.57,2.83-11-.06-22.08,0-33.12,0-3.1,0-3.43-.45-2.63-3.43q4.15-15.51,8.32-31C444,150.11,444.1,149.66,444.29,148.72Z"/><path d="M911.21,185c-10.3,0-20.61.19-30.9-.1A37.66,37.66,0,0,1,869,182.74c-6.43-2.27-9.75-7.64-8.8-14.7a166.87,166.87,0,0,1,4.13-19.19c4.32-16.71,8.83-33.38,13.28-50.06,2-7.51,6.65-11.05,14.52-11.12,8.17-.07,16.33-.16,24.49-.2,3.29,0,3.59.4,2.74,3.57-5.68,21.13-11.42,42.25-17,63.41-1.92,7.19-1.5,7.74,5.76,7.87,6.57.13,13.14.07,19.7,0,4.65-.09,7-2.13,8.26-6.68,5.77-21.5,11.59-43,17.23-64.52.77-2.94,2.11-3.72,5-3.67,10.76.22,21.52.19,32.28.25,3.24,0,3.39.19,2.55,3.27q-5.91,21.66-11.82,43.29c-2.84,10.33-5.5,20.71-8.64,30.95-3.91,12.7-11.17,17.64-24.69,19.21-6,.7-12.21.52-18.32.61S917.33,185,911.21,185Z"/><path d="M1175.36,87.64c13.27,0,26.54-.07,39.81,0a9.33,9.33,0,0,1,9.11,6.53c1.48,4,2.74,8,4,12.1,1,3.27.8,3.41-2.7,3.41h-31.19c-12,0-23.95.06-35.92,0-2.79,0-4.31.94-4.91,3.71-.55,2.52-1.45,5-2.15,7.45-.93,3.3-.73,3.56,2.6,3.57,5.75,0,11.5,0,17.26,0,11.6,0,23.2,0,34.8,0,2.21,0,2.79.57,2.15,2.74-1.63,5.58-3.15,11.2-4.6,16.84-.54,2.1-1.69,2.68-3.79,2.67-17.17-.08-34.34,0-51.51-.11-2.76,0-4.17.88-4.68,3.49-.56,2.9-1.38,5.76-1.7,8.68-.34,3.2.28,3.69,3.59,3.69h45.11c7.79,0,15.59,0,23.39,0a11.48,11.48,0,0,1,2.33.52,11.5,11.5,0,0,1-.87,2.43c-2.3,3.59-4.78,7.06-7,10.7-3.66,6-9.07,8.84-16,8.85-24.6,0-49.19.08-73.79,0-5.66,0-11.18-1.23-15.09-5.82-4.21-4.94-4-10.9-2.51-16.65q8-30.69,16.45-61.26c2.38-8.64,9.22-13.38,19.13-13.45,12.9-.1,25.79,0,38.69,0Z"/><path d="M1217.67,184.92c.18-1.11.24-1.82.42-2.5,1.52-5.71,3.18-11.39,4.53-17.15.54-2.31,1.63-2.93,3.84-2.93,19.39.06,38.78,0,58.17,0,4.81,0,5.89-.85,7.18-5.55.56-2,1.19-4.07,1.68-6.13.72-3-.17-4.11-3.31-4.11-13.17,0-26.35,0-39.52-.06a48.41,48.41,0,0,1-9.92-.93c-8.33-1.79-12.66-8.09-11-16.44,1.49-7.41,3.66-14.68,5.52-22,.36-1.43.63-2.89,1-4.31,2.76-9.68,10-15,21.38-15.12,28.76-.21,57.52-.19,86.28-.24a22.81,22.81,0,0,1,2.49.29c-.19,1.13-.27,2.11-.52,3-1.36,5.08-2.85,10.13-4.12,15.24-.68,2.7-2.11,3.74-4.92,3.73-19.57-.08-39.15,0-58.73-.11-2.93,0-4.52.83-5.07,3.74-.45,2.35-1.2,4.64-1.7,7-.58,2.74.43,4,3.3,4,6.68,0,13.36,0,20,0q13.21,0,26.44,0c8.19,0,14.41,5.79,13.8,14-.47,6.29-2.28,12.49-3.74,18.67-1,4.3-2.41,8.52-3.7,12.76-2.77,9.08-9.4,13.43-18.4,14.55a93.82,93.82,0,0,1-11.37.58q-38.41,0-76.82-.06Z"/><path d="M601.87,124.4a20.88,20.88,0,0,1-.32,2.63c-1.55,5.61-3.23,11.18-4.66,16.82-.54,2.14-1.53,2.78-3.67,2.77-17.26-.08-34.52,0-51.78-.1-2.47,0-3.81.7-4.31,3.12-.54,2.62-1.29,5.19-1.84,7.81-.86,4.1-.14,4.93,4.11,4.93h66.81c.75,0,1.49,0,2.23,0,1.55.06,2.1.77,1.16,2.12-3.54,5.1-7,10.28-10.76,15.19-3.13,4.05-7.84,5.17-12.69,5.18q-34.93.12-69.87,0a67.32,67.32,0,0,1-10.49-1.06c-7.92-1.31-12.87-7.25-12-15.38a130.2,130.2,0,0,1,3.86-18.1c4-15.37,8.13-30.69,12.23-46,2.09-7.8,6.08-14,14.55-15.84a43.3,43.3,0,0,1,9.09-.95q36.18-.12,72.38,0c7.31,0,10.59,2.46,12.81,9.46,1,3.17,2,6.34,3,9.51s.88,3.29-2.4,3.29H553.07c-5.22,0-5.3.08-6.53,5.07-.6,2.42-1.18,4.85-1.91,7.23-.56,1.8.12,2.41,1.83,2.38,1.3,0,2.6,0,3.89,0h51.52Z"/><path d="M311.76,13.9a26.34,26.34,0,0,1-2.28,1.82Q252.63,52,195.78,88.36a5,5,0,0,1-6.08,0q-57-36.56-114.13-73c-.76-.48-1.47-1-3-2.12,3.31-.48,5.79-.86,8.27-1.2,3.95-.53,7.9-1.43,11.86-1.44A28.16,28.16,0,0,1,103,12.2c16.36,6.49,32.61,13.27,48.85,20a6.8,6.8,0,0,0,5.57,0c10.6-4.2,21.25-8.25,31.84-12.45a9.2,9.2,0,0,1,7.24,0C207,24,217.55,28,228.05,32.22a7.44,7.44,0,0,0,6.11-.1c16.42-6.83,32.91-13.5,49.32-20.36a17.55,17.55,0,0,1,10-1.21c4.94.8,9.93,1.28,14.89,1.92,1.07.14,2.11.4,3.17.6Z"/><path d="M855.45,162.6c-3.84,7.46-7.93,14.16-13.91,19.19-2.37,2-6.29,3-9.52,3-23,.25-46,.15-69,.1a26.23,26.23,0,0,1-5.79-.66c-9.35-2.13-14.29-9.82-11.94-19.61,3.42-14.27,7.36-28.41,11.08-42.6,1.57-6,3.12-12,4.75-17.94,3.08-11.27,9.39-16.33,21-16.39,23.83-.11,47.67,0,71.51,0,4.58,0,8.21,2.75,9.77,7.29,1.38,4,2.56,8.1,4,12.11.74,2.1-.07,2.69-2,2.68-4.73,0-9.46,0-14.2,0H804.41c-4.43,0-5.55.87-6.66,5q-5.75,21.41-11.52,42.8c-.79,3-.16,4,2.86,4.74a13.35,13.35,0,0,0,2.75.34c13.92,0,27.83,0,41.75,0,6.39,0,12.79-.22,19.19-.31C853.47,162.3,854.17,162.46,855.45,162.6Z"/><path d="M1047,87.65c-1,3.87-1.81,7.34-2.74,10.78q-7.77,29-15.6,58c-1.18,4.38,0,5.9,4.8,5.91q29.61,0,59.24,0c1,0,2.1.17,3.38.28a9.21,9.21,0,0,1-.68,1.88c-3.22,4.76-6.32,9.6-9.77,14.19-3.2,4.26-7.76,6.17-13.07,6.17q-33.39,0-66.79,0a22.82,22.82,0,0,1-5.77-.67c-12.21-3.16-14.45-8.93-12.4-20,2.45-13.13,6.43-26,9.82-38.93,2.28-8.76,4.69-17.48,7-26.21,2.1-7.83,6.69-11.39,14.87-11.43s16.13,0,24.19,0Z"/></svg>