<svg id="Layer_1" data-name="Layer 1" xmlns="http://www.w3.org/2000/svg" viewBox="0 0 1417.32 283.46"><path d="M533.57,140c3.52.68,7,1.59,10.58,2,20.19,2.25,29.45,21.39,23.51,38.78-2.76,8.06-7.73,14.7-13.82,20.51-11,10.51-24.29,16.85-38.7,21.08a132.49,132.49,0,0,1-33.88,5.1c-40.18,1.08-80.36.91-120.55.62-5.3,0-10.61-.22-15.92-.37-4.3-.13-4.77-.83-3-4.72q10.86-24.47,21.76-48.91,24.93-56,49.85-112a32.66,32.66,0,0,1,1.54-3.28,5.4,5.4,0,0,1,4.69-2.92c1.08,0,2.17,0,3.25,0q50.51,0,101-.08c8.32,0,16.65,0,25,.27,9,.33,18,1.38,26.7,4.29a48.4,48.4,0,0,1,9.22,4.09c10,5.9,14.43,16.72,12,28.71a42.94,42.94,0,0,1-16.79,26.61c-10.68,8-22.76,13-35.54,16.51-3,.82-6.1,1.47-9.14,2.23a12.6,12.6,0,0,0-1.58.66ZM422.66,194.22c.52.33.7.55.91.57,14.66,1.62,29.34,2.44,44,0a54.14,54.14,0,0,0,19.38-6.62A28.31,28.31,0,0,0,499.28,174c3.76-9.68-1.86-18.4-12.27-18.7-14.46-.42-28.93-.55-43.4-.91-2.44-.06-3.68.83-4.64,3-5.1,11.58-10.33,23.1-15.51,34.65C423.17,192.69,423,193.38,422.66,194.22ZM472.48,124a81,81,0,0,0,22.67-1.5c9.88-2.26,18.27-6.82,23.85-15.65,3.77-6,2.35-11.73-4-14.72a37.37,37.37,0,0,0-10-2.91c-10.2-1.58-20.46-.87-30.7-.08a7.68,7.68,0,0,0-6.53,4.55c-4.13,8.59-8.23,17.19-12.21,25.84-1.36,2.94-.41,4.35,2.87,4.44C463.08,124.1,467.78,124,472.48,124Z"/><path d="M567.65,225.18c1.07-1.72,1.67-2.75,2.33-3.73,7.34-10.91,14.79-21.75,22-32.75,1.8-2.76,3.75-3.54,6.89-3a407.35,407.35,0,0,0,77.92,4.84c8.18-.29,16.36-1.13,24.49-2.11,5.19-.62,10-2.86,14.43-5.55,4.27-2.55,5.23-6.49,2.71-10.81-2.8-4.81-7-7.79-12.14-9.8-9.09-3.57-18.29-6.9-27.17-10.93C668.24,146.37,657.59,141,647,135.46a41.77,41.77,0,0,1-9.57-7c-8.71-8.48-11-18.72-7.13-30.2,3.27-9.8,9.89-17,18.32-22.66a130,130,0,0,1,41.9-18.24c11.53-2.8,23.29-4,35.07-5a380.26,380.26,0,0,1,47-.76c14.23.6,28.39,2,42.5,4,3.46.49,7,.56,10.43,1a17,17,0,0,1,5.47,1.5c2.42,1.24,2.82,3.5,1.5,5.85-.12.21-.26.41-.4.61-7,9.26-13.87,18.55-20.86,27.79a7.5,7.5,0,0,1-7.37,2.87C791.92,93.77,780,92.07,768,91c-13.34-1.21-26.72-2-40.11-.42a47.65,47.65,0,0,0-18.49,5.86,19.41,19.41,0,0,0-4.5,3.56c-1.78,1.94-1.79,3.88,0,5.85a16.63,16.63,0,0,0,4.47,3.59c3.08,1.64,6.3,3,9.53,4.36,10.57,4.39,21.24,8.56,31.76,13.08a111.44,111.44,0,0,1,22.55,12.93,58.32,58.32,0,0,1,11.92,11.56c9.83,13,10.12,27.57.8,40.95-5.19,7.45-12,13.18-19.58,18-11.85,7.58-25,12-38.6,14.88-15.12,3.22-30.48,4.79-45.9,5.91a445.73,445.73,0,0,1-52.46.66,498.34,498.34,0,0,1-49.69-4.75C575.84,226.49,572.06,225.87,567.65,225.18Z"/><path d="M974.35,55.89h35.84c3.51,0,3.55,0,4.21,3.44q4.94,25.76,9.82,51.5c.64,3.39.25,3.87-3.28,4.42l-53.6,8.38c-3.18.5-3.62.27-4-2.9-.66-5.63-1.17-11.28-1.75-16.91a11.94,11.94,0,0,0-.19-1.8c-.48-1.8-1.82-2.28-3.24-1.12a15.17,15.17,0,0,0-1.7,1.87c-6.4,7.39-12.84,14.74-19.14,22.21a8.12,8.12,0,0,1-5.45,3c-12.17,1.72-24.34,3.51-36.51,5.27-1.91.27-3.82.5-5.73.8-1.39.23-3.18.14-3.36,2-.17,1.71,1.48,2,2.68,2.45l22.2,8.75c4.9,1.93,5,2.36,1.58,6.36Q882,189.35,851.36,225a7.63,7.63,0,0,1-6.48,3c-18.82,0-37.64.09-56.47.16a14.24,14.24,0,0,1-2.53-.06c-1.81-.28-2.36-1.57-1.35-3.13a15.87,15.87,0,0,1,1.65-1.93Q859.62,140.88,933,58.67a7.42,7.42,0,0,1,6.21-2.8c11.7.15,23.41.07,35.11.07Z"/><path d="M1076.51,109.73a22.33,22.33,0,0,1-2.71,3.16,73.06,73.06,0,0,1-6.48,4.6c-10.91,6.91-21.85,13.75-32.78,20.63-4.72,3-5.08,3.94-4,9.54q7.21,38.57,14.37,77.15c.67,3.62.09,4.41-3.53,4.42q-27.33.14-54.67.14c-4.88,0-6.34-1.38-7.15-6.28-1.42-8.68-3-17.35-4.19-26.07-.78-5.67-5.05-9.89-11.12-9.48-14.21,1-28.43,1.59-42.61,2.76-9.25.76-18.44,2.26-27.65,3.41-3,.37-5-1.45-3.92-3.75a6.46,6.46,0,0,1,2.82-2.56c6.61-3.48,13.29-6.86,19.95-10.26q59.61-30.4,119.2-60.87c7.68-3.94,15.85-5.66,24.26-6.68,5.26-.65,10.54-1.15,15.83-1.56a17.2,17.2,0,0,1,4.08.63Z"/></svg>