<svg id="Layer_1" data-name="Layer 1" xmlns="http://www.w3.org/2000/svg" viewBox="0 0 1417.32 283.46"><path d="M226.18,235.23c-4.71-16.26-9.13-31.54-14-48.19L191.62,215l-17.05-26.54-15.32,43.86-26.4-24.59,22.72-18.89-1.16-1.48-29.26,10.45-15.72-30.71c13.42,1.54,26.29,4.33,40.31-1.28-2.45-.74-3.6-1.12-4.76-1.44-12.55-3.5-25.14-6.89-37.63-10.62a7.16,7.16,0,0,1-4.07-4.21c-2.52-8.29-4.61-16.72-7.23-26.57,16.49,10.92,32.8,19.2,52.06,20.33l-5-3.49c-15.6-10.89-31.24-21.73-46.74-32.77a7.88,7.88,0,0,1-2.93-5.24c-.36-6.1-.14-12.24-.14-19.13,9.1,8.82,16.84,19.17,31.86,21.65l-20-29.21q-3.69-5.4-7.37-10.81c-3.16-4.65-3.29-6.34-.8-12.95,15.85,20.27,35.73,35.52,57.66,49-1.22,1.15-2.33,2.08-3.28,3.14-4.59,5.13-5.1,11.1-1.26,16.81,5.95,8.83,13.12,16.23,24.25,20,2.78-13.19,5.46-25.86,8.28-39.24,9.47,1.92,20.62-4.75,28.25,7-8.79,1-8.78.44-7.74,9.37.93,7.93,3.51,15.67,5.65,24.71,4.46-1.92,8-2.73,10.66-4.73a107.2,107.2,0,0,0,14.24-12.5c7.12-7.66,6.27-14.65-1.9-21.31a19,19,0,0,1-1.42-1.32c24.15-13.12,40.88-34.22,59.45-54.06,1.85,6.81,2.78,13.08-1.77,19.05-7.56,9.92-15,19.94-22.53,29.9a26.86,26.86,0,0,0-3.94,6c13.36-2.57,21.31-12.81,30.88-22.17,1.13,13.42,2.66,25.78-11,33.83C269,122.21,257.05,130.31,244.84,138c-2,1.24-4.05,2.25-6.65,3.69,11.27,2.33,26.33-3.76,51.35-20.43,0,11.16-3.27,21.08-7.87,30.31-1.41,2.82-6.43,4.56-10.11,5.39-10.6,2.38-21.39,3.95-32.05,6.09-1.6.32-2.93,2-4.39,3.08l.95,1.19h40.8c-5,8.71-9.68,17.15-14.75,25.35-.7,1.13-3.52,1.86-5,1.47-8.55-2.27-17-4.93-25.09-7.35,1.23,5,1.78,5.52,21,19.89Z"/><path d="M528.88,183.24c2.91-5.74,5.57-11.07,8.31-16.37,4.3-8.3,8.67-16.57,13-24.87,2.51-4.84,1.58-7.65-3.75-8.33-8.67-1.12-17.51-1.64-26.09.73a19.91,19.91,0,0,0-13,10.94c-5.71,11.51-11.93,22.78-17.66,34.28-1.64,3.28-3.68,4.37-7.25,4.32-13.05-.18-26.11-.06-39.16-.08-1.51,0-3-.22-5.15-.39a45.86,45.86,0,0,1,1.71-4.52q8.87-17.13,17.8-34.21a41.76,41.76,0,0,0,2.05-4.2c1.23-3.15.67-4.61-2.47-6a11.21,11.21,0,0,0-4.46-1.23c-6.61,0-13.29-.32-19.82.51-7.68,1-13.58,4.85-17.16,12.37-5.43,11.42-11.64,22.48-17.35,33.78-1.4,2.76-3.14,4.13-6.29,4.12-14.62-.09-29.23,0-43.84-.07-.33,0-.66-.3-1.34-.63a40.56,40.56,0,0,1,1.61-4.16c6.63-12.79,13.15-25.66,20.09-38.28a31.35,31.35,0,0,1,7.85-9.23,56.29,56.29,0,0,1,35.69-12.55q82.71-.18,165.43-.26c4.93,0,9.71.45,14.28,2.42,8.93,3.85,12.85,12.38,8,21.52-6.6,12.37-12.94,24.89-19.35,37.36-1.07,2.09-2.45,3.24-5,3.25-14.6.08-29.21.3-43.81.43A15.82,15.82,0,0,1,528.88,183.24Z"/><path d="M1265.14,137.73c.74-3.67-1.26-4.77-3.29-5.33a26.17,26.17,0,0,0-6.89-.9c-18.13-.07-36.26,0-54.4,0h-6.7c2.17-4.45,3.8-8.35,6-11.91.69-1.12,2.86-1.78,4.39-1.86,4.47-.24,9-.09,13.45-.09h63.75c5.45,0,11-.45,16.33.23a33.25,33.25,0,0,1,12,4c6.6,3.77,8.7,10.87,5.45,17.71-3.68,7.74-7.66,15.36-12,22.74a27.8,27.8,0,0,1-7.47,8.08c-10,7.34-21.2,11.52-33.69,11.66-12.86.15-25.73,0-38.6,0-11.5.06-23,.48-34.49.31a52.91,52.91,0,0,1-15-2c-12.81-4-15.91-16.52-6.54-26.13,10.91-11.19,24.69-16.15,40.06-16.42,17.15-.3,34.32-.07,51.47-.07Zm-7.23,13.8c-7.51,0-14.47,0-21.44,0-1.93,0-3.87.16-5.8.35a26.77,26.77,0,0,0-14.45,5.58c-2,1.58-4.19,3.44-3.46,6.26.79,3,3.73,3.64,6.42,4.25a5.54,5.54,0,0,0,1.15.12c6,0,12.06.3,18-.19C1248.73,167.07,1255.09,161.71,1257.91,151.53Z"/><path d="M692.27,118.66c13.05,0,26.1,0,39.15,0a28.28,28.28,0,0,1,16.07,4.47c6.34,4.16,8.51,10.34,5.3,17.23-3.78,8.11-7.91,16.09-12.45,23.79-3.9,6.6-10.6,10.2-17.28,13.48a58.12,58.12,0,0,1-26,5.78q-37.11,0-74.21,0a29.86,29.86,0,0,1-16.18-4.2c-6.76-4.17-9.12-10.38-5.81-17.54a226.69,226.69,0,0,1,12.55-23.73c2.15-3.51,5.71-6.41,9.16-8.81a57.39,57.39,0,0,1,34-10.48C668.5,118.75,680.38,118.66,692.27,118.66ZM666.19,169.1v.1a82.33,82.33,0,0,0,8.75,0c7.4-.8,14.16-3.13,18.09-10.07,3.35-5.92,6.45-12,9.49-18.08,2-4,1.14-5.94-3.18-7.5a12.59,12.59,0,0,0-4-.76c-5.45-.08-10.93-.43-16.33.07-8.74.8-16.11,4-20,12.86-2.17,5-5,9.65-7.45,14.53-2.54,5.13-1,8.12,4.66,8.83C659.54,169.43,662.89,169.1,666.19,169.1Z"/><path d="M833.4,181.94c.85-1.82,1.75-3.93,2.8-5.95,5.82-11.25,11.7-22.47,17.54-33.72,3.14-6.05,1.55-9.38-5.23-9.64-9.34-.36-18.71-.06-28.07-.14-2.45,0-3.33,1.57-4.25,3.35q-7.82,15-15.66,30.07c-2.88,5.52-5.8,11-8.82,16.77H741.79c10.78-21.53,22-42.37,32.82-63.51a27.09,27.09,0,0,1,3.52-.47q52.33-.3,104.67-.52a30.7,30.7,0,0,1,14.7,3.26c8.18,4.33,10.83,11.85,6.66,20.15-6.38,12.72-13.06,25.29-19.56,37.94-1.06,2.06-2.31,3.42-4.87,3.4-15.2-.11-30.39-.12-45.59-.18C834,182.75,833.91,182.51,833.4,181.94Z"/><path d="M1008.85,168.78c-2.67,5.12-4.89,9.38-7.18,13.79-1.92.09-3.64.24-5.37.24q-36,0-71.94,0a31,31,0,0,1-14.7-3.19c-8.33-4.34-11-11.73-6.78-20.06,10.45-20.48,21.15-40.83,31.86-61.47H984.6l-9.55,19.62h44.66c-1.49,5.08-3.9,8.86-6.18,12.56-.74,1.2-3.33,1.71-5.09,1.74-11.5.15-23,.37-34.5,0-5.06-.19-7.8,1.51-9.89,6-3.39,7.23-7.35,14.19-11,21.29-2.75,5.36-1.67,8.08,4.39,9,5,.76,10.08.5,15.13.52C984.23,168.82,995.9,168.78,1008.85,168.78Z"/><path d="M1174.7,117.6l-7,14.12h-6.36c-17.74,0-35.47-.17-53.2.12a46.68,46.68,0,0,0-13,2.64c-4.4,1.41-7.43,4.65-9.57,8.9-5.87,11.66-12,23.17-18,34.79-1.33,2.61-2.77,4.36-6.12,4.35-14.22,0-28.44.18-42.66.28a27.31,27.31,0,0,1-3.3-.42c1.1-2.36,1.92-4.28,2.87-6.13,5.91-11.41,12-22.74,17.72-34.25a36.41,36.41,0,0,1,15.14-15.76,61.71,61.71,0,0,1,31.18-8.45c28.06.1,56.12-.11,84.17-.19Z"/></svg>