<svg id="Layer_1" data-name="Layer 1" xmlns="http://www.w3.org/2000/svg" viewBox="0 0 1417.32 283.46"><defs><style>.cls-1{fill:#4c4c4c;}</style></defs><path d="M225,171.87a17.64,17.64,0,0,1-5.23,12.62c-2.63,2.7-5.32,5.34-8,8q-18.6,18.6-37.2,37.22c-2.62,2.62-5.49,4.8-9.14,5.7a17.37,17.37,0,0,1-16.65-4.11c-2.22-2-4.33-4.13-6.36-6.32-6.69-7.26-6.72-17.44,0-24.68,3.27-3.52,6.76-6.83,10.16-10.23q17.79-17.78,35.56-35.57c4.85-4.89,10.52-7,17.34-5.59C214.54,150.75,225,163.09,225,171.87Z"/><path d="M224.87,111.93a18,18,0,0,1-4.8,12.12c-2.13,2.27-4.31,4.51-6.61,6.61a17.4,17.4,0,0,1-24,0c-5.42-5-10.58-10.37-15.84-15.59Q158.36,100,143.14,84.84a18.91,18.91,0,0,1-5.51-9.23,17.22,17.22,0,0,1,4-16,83.41,83.41,0,0,1,7.14-7.18c7-6.27,17.43-5.94,24.37.79,6.53,6.34,12.95,12.78,19.4,19.19,9,8.89,17.85,17.81,26.81,26.68A18.27,18.27,0,0,1,224.87,111.93Z"/><path d="M261.7,148.7c4.7-.14,8.9,1.93,12.46,5.46q6.51,6.45,13,12.93,16.32,16.2,32.64,32.4c4.78,4.75,6.66,10.42,5.2,17.07-1.55,7-11.79,17.39-18.77,18.93-6.62,1.45-12.3-.31-17.1-5.08q-10.37-10.31-20.76-20.58-12.3-12.24-24.57-24.49c-8.06-8.07-8.09-18.44-.11-26.57,1.73-1.76,3.46-3.53,5.25-5.23C252.53,150.13,256.32,148.67,261.7,148.7Z"/><path class="cls-1" d="M261.62,133.89a15.88,15.88,0,0,1-12-4.67c-2.07-2-4.1-4-6.06-6.06-6.64-7-6.71-17.34.08-24.24C259,83.38,274.48,68,289.8,52.47c6.65-6.75,18.67-6.7,24.9,0,1.68,1.81,3.41,3.58,5.24,5.23,6.82,6.18,7,18.48,0,25.21-5.53,5.3-10.83,10.85-16.24,16.28q-14.43,14.49-28.89,29C271.14,131.86,266.92,134.11,261.62,133.89Z"/><path d="M826.33,94.41c1.38,21.69,2.74,43.05,4.15,65.17,1-1.19,1.63-1.77,2.11-2.44,14-19.88,28.06-39.74,42-59.7A7.12,7.12,0,0,1,881.27,94c12.23.16,24.46.06,36.7.06h4.62c1.6,21.54,3.17,42.75,4.77,64.31,1.83-.59,2.34-2,3.11-3.05,13.82-19.21,27.67-38.41,41.37-57.72a7.52,7.52,0,0,1,7-3.62c13.4.19,26.81.08,40.21.09,1.25,0,2.49.11,4.23.2-.85,1.35-1.38,2.34-2,3.23q-33.25,45.3-66.53,90.58c-1.19,1.63-2.3,2.81-4.68,2.79-17.95-.11-35.91-.06-53.87-.07-.75,0-1.51-.14-2.64-.24-2-20.62-3.93-41.12-6-62.66-1.33,1.75-2.17,2.78-2.94,3.86-13.09,18.46-26.23,36.89-39.2,55.44a7.48,7.48,0,0,1-7,3.69c-14.83-.17-29.66-.08-44.49-.08H789.3c-2.77-21.38-5.5-42.48-8.26-63.81H721.49c-6.57,21.07-13.19,42.35-19.83,63.65H648.87c.38-1.64.61-3.09,1-4.48q11.54-37.44,23.12-74.88l5.24-16.91Z"/><path d="M1219.2,151.41c5.39-19.58,10.5-38.18,15.68-57h45.35c-10,32.15-19.83,64.1-29.76,96.23-1.19.09-2.19.22-3.19.22-18.47,0-37-.05-55.42.08a5.48,5.48,0,0,1-5.28-3q-17.64-27.63-35.44-55.13c-.75-1.16-1.57-2.28-2.8-4.06l-19.43,61.83h-45.39c9.79-32.25,19.73-64.19,29.65-96.42h4c19.9,0,39.81.08,59.71-.08,3,0,4.64,1,6.23,3.45,10.81,16.39,21.76,32.69,32.68,49C1216.71,147.89,1217.67,149.21,1219.2,151.41Z"/><path d="M549.85,136.91c1.35.35,2.68.72,4,1a28.42,28.42,0,0,1,13,6.67,15.79,15.79,0,0,1,5.21,14c-1.06,9.76-6.07,17-14.29,22.09-6.86,4.25-14.49,6.35-22.34,7.72a165.65,165.65,0,0,1-28.74,2.38q-49.77-.06-99.53,0h-5.3c3-11.32,6.63-22,9.89-32.69,3.31-11,6.74-21.86,10.12-32.78s6.68-21.58,10.05-32.49a24.33,24.33,0,0,1,2.79-.33q54.25,0,108.51.09a97.1,97.1,0,0,1,25.1,3.11,32.32,32.32,0,0,1,7.21,2.88c6,3.31,7.81,8.29,5.78,14.88a26.88,26.88,0,0,1-10.55,14.11c-5.37,3.84-11.46,6-17.77,7.75-1.09.29-2.16.63-3.24.95ZM459,172.44c1.64.14,2.75.32,3.86.32,12,0,23.89,0,35.83,0a57.51,57.51,0,0,0,7.76-.56c5.88-.85,10.62-3.45,12.86-9.32,2.4-6.32-.49-12.3-7-14a36.38,36.38,0,0,0-8.85-1c-10.9-.11-21.81,0-32.71,0h-4.09C464.11,156.08,461.64,164.06,459,172.44Zm12.66-39.67a6.77,6.77,0,0,0,1.21.35c13.91,0,27.82.14,41.73-.1a20.81,20.81,0,0,0,8.52-2.34,11.12,11.12,0,0,0,5.69-11.84c-.87-4.1-5.12-7.29-10.19-7.65q-.39,0-.78,0c-12.35,0-24.7,0-37.05-.13-2.27,0-3.17.89-3.76,3-1.52,5.37-3.28,10.67-4.9,16A22,22,0,0,0,471.7,132.77Z"/><path d="M1060.79,190.69h-53.1c9.81-32.33,19.75-64.28,29.62-96.39h53.17C1080.52,126.62,1070.67,158.61,1060.79,190.69Z"/><path d="M686.12,94.3c-3.4,11-6.7,21.58-10,32.2h-63c3.51-11,6.89-21.54,10.29-32.2Z"/></svg>